# xmcd CD database file
#
# Track frame offsets:
#	150
#	19270
#	37342
#	49079
#	68417
#	82292
#	98657
#	115034
#	134727
#	150800
#	165262
#	177909
#	194527
#	213407
#
# Disc length: 3125 seconds
#
# Revision: 2
# Processed by: cddbd v1.5.2PL0 Copyright (c) Steve Scherf et al.
# Submitted via: CDex 1.51
#
DISCID=ba0c330e
DTITLE=Sara Evans - Words
DYEAR=2017
DGENRE=Country
TTITLE0=Long Way Down
TTITLE1=Marquee Sign
TTITLE2=Diving In Deep
TTITLE3=All The Love You Left Me
TTITLE4=Like The Way You Love Me
TTITLE5=Rain And Fire
TTITLE6=Night Light
TTITLE7=I Need A River
TTITLE8=I Don't Trust Myself
TTITLE9=Make Room At The Bottom
TTITLE10=Words
TTITLE11=I Want You
TTITLE12=Letting You Go
TTITLE13=A Little Bit Stronger (Acoustic Version)
EXTD=YEAR: 2017
EXTT0=
EXTT1=
EXTT2=
EXTT3=
EXTT4=
EXTT5=
EXTT6=
EXTT7=
EXTT8=
EXTT9=
EXTT10=
EXTT11=
EXTT12=
EXTT13=
PLAYORDER=
